<?xml version="1.0" encoding="iso-8859-1"?>
<!-- Generator: Adobe Illustrator 19.0.0, SVG Export Plug-In . SVG Version: 6.00 Build 0)  -->
<svg version="1.1" id="Layer_1" xmlns="http://www.w3.org/2000/svg" xmlns:xlink="http://www.w3.org/1999/xlink" x="0px" y="0px"
	 viewBox="0 0 512.001 512.001" style="enable-background:new 0 0 512.001 512.001;" xml:space="preserve">
<g>
	<path style="fill:#F73C3C;" d="M176.014,130.695c4.557,19.396-7.384,38.815-26.709,43.526l-1.331,0.306
		c-19.137,3.91-38.05-8.09-42.548-27.227c-4.593-19.49,7.49-39.015,26.992-43.597C151.908,99.11,171.421,111.193,176.014,130.695z"
		/>
	<path style="fill:#F73C3C;" d="M192.207,199.517l8.291,35.247l-70.588,16.605l-8.291-35.247
		c-4.357-18.513,7.113-37.061,25.637-41.418l0.718-0.177l1.331-0.306l1.484-0.353C169.301,169.51,187.849,180.992,192.207,199.517z"
		/>
</g>
<g>
	<polygon style="fill:#4780D1;" points="412.521,438.485 412.521,471.435 272.452,471.435 	"/>
	<polygon style="fill:#4780D1;" points="412.521,41.912 412.521,195.96 376.273,41.912 	"/>
	<polygon style="fill:#4780D1;" points="222.578,41.912 222.578,41.924 79.694,75.534 79.694,41.912 	"/>
	<polygon style="fill:#4780D1;" points="79.694,234.646 135.409,471.435 79.694,471.435 	"/>
</g>
<path style="fill:#F2F2F2;" d="M412.521,195.972l54.066,229.794l-54.066,12.719l-140.069,32.951h-0.012l-129.847,30.548
	l-7.184-30.548l-55.715-236.79v-0.024L44.223,83.883l35.471-8.35l142.884-33.61l145.64-34.27l8.055,34.258l36.248,154.048V195.972z
	 M200.497,234.764l-8.291-35.247c-4.357-18.524-22.905-30.006-41.418-25.649l-1.484,0.353c19.325-4.711,31.267-24.13,26.709-43.526
	c-4.593-19.502-24.106-31.585-43.597-26.992c-19.502,4.581-31.585,24.106-26.992,43.597c4.499,19.137,23.412,31.137,42.548,27.227
	l-0.718,0.177c-18.524,4.357-29.995,22.905-25.637,41.418l8.291,35.247L200.497,234.764z"/>
<path d="M475.776,424.921l-53.827-228.789V43.097c0-4.878-3.953-8.832-8.832-8.832h-29.25l-6.458-27.453
	c-1.116-4.749-5.872-7.69-10.621-6.575L222.153,34.264H80.29c-4.879,0-8.832,3.955-8.832,8.832v26.622l-28.66,6.743
	c-2.281,0.537-4.254,1.957-5.487,3.949c-1.233,1.991-1.624,4.391-1.088,6.671l35.235,149.765v235.772
	c0,4.878,3.953,8.832,8.832,8.832h48.716l5.586,23.74c0.537,2.28,1.957,4.254,3.949,5.487c1.408,0.871,3.019,1.322,4.649,1.322
	c0.676,0,1.354-0.078,2.023-0.234l128.852-30.315h139.053c4.879,0,8.832-3.955,8.832-8.832v-25.96l47.252-11.117
	C473.949,434.424,476.892,429.669,475.776,424.921z M404.285,51.929v69.12l-16.262-69.12H404.285z M89.122,51.929h57.947
	L89.122,65.563V51.929z M89.122,463.787V311.93l35.727,151.856H89.122z M404.285,463.787h-55.137l55.137-12.972V463.787z
	 M149.763,492.548L55.441,91.633l306.795-72.179l94.323,400.914L149.763,492.548z"/>
<path d="M208.6,240.594c1.233-1.991,1.624-4.391,1.088-6.673l-8.294-35.251c-2.647-11.252-9.518-20.801-19.348-26.886
	c-1.891-1.171-3.851-2.183-5.859-3.042c1.245-1.526,2.407-3.134,3.461-4.835c6.339-10.241,8.312-22.338,5.554-34.061
	c-5.694-24.202-30.012-39.259-54.219-33.566c-11.723,2.758-21.672,9.917-28.013,20.158c-6.339,10.241-8.312,22.338-5.554,34.062
	c3.339,14.191,13.082,25.233,25.449,30.797c-8.644,10.132-12.535,24.098-9.257,38.026l8.294,35.251
	c0.957,4.068,4.585,6.812,8.59,6.812c0.67,0,1.35-0.077,2.031-0.237l70.589-16.607C205.393,244.006,207.367,242.585,208.6,240.594z
	 M114.613,146.455c-1.678-7.131-0.478-14.489,3.377-20.717c3.856-6.229,9.908-10.584,17.039-12.26
	c2.104-0.495,4.208-0.732,6.282-0.732c12.436,0,23.727,8.532,26.696,21.148c1.678,7.131,0.478,14.489-3.377,20.717
	c-3.856,6.227-9.906,10.581-17.036,12.26l-0.008,0.002C132.859,170.331,118.075,161.174,114.613,146.455z M137.075,241.932
	l-6.271-26.653c-3.234-13.748,5.319-27.563,19.066-30.797l3.532-0.831l0,0c1.964-0.462,3.945-0.69,5.913-0.69
	c4.705,0,9.332,1.306,13.432,3.845c5.816,3.601,9.884,9.252,11.45,15.911l6.271,26.654L137.075,241.932z"/>
<path d="M287.139,408.653L179.445,433.99c-4.748,1.116-7.691,5.872-6.575,10.62c0.957,4.069,4.585,6.812,8.59,6.812
	c0.67,0,1.35-0.077,2.031-0.237l107.695-25.337c4.748-1.116,7.691-5.872,6.575-10.62
	C296.642,410.479,291.886,407.539,287.139,408.653z"/>
<path d="M394.834,342.724l-224.44,52.803c-4.748,1.118-7.691,5.872-6.575,10.62c0.957,4.069,4.585,6.812,8.59,6.812
	c0.67,0,1.351-0.077,2.031-0.237l224.44-52.803c4.748-1.118,7.691-5.872,6.575-10.62
	C404.336,344.55,399.573,341.609,394.834,342.724z"/>
<path d="M385.785,304.261l-224.44,52.803c-4.748,1.118-7.691,5.872-6.575,10.62c0.957,4.069,4.585,6.811,8.59,6.811
	c0.67,0,1.351-0.077,2.031-0.237l224.44-52.803c4.748-1.118,7.691-5.872,6.575-10.62
	C395.288,306.088,390.526,303.146,385.785,304.261z"/>
<path d="M376.737,265.799l-224.44,52.803c-4.748,1.118-7.691,5.872-6.575,10.62c0.957,4.069,4.585,6.811,8.59,6.811
	c0.67,0,1.351-0.077,2.031-0.237l224.44-52.803c4.748-1.118,7.691-5.872,6.575-10.62
	C386.241,267.625,381.478,264.685,376.737,265.799z"/>
<path d="M136.672,290.761c0.957,4.069,4.585,6.811,8.59,6.811c0.67,0,1.351-0.077,2.031-0.237l224.44-52.803
	c4.748-1.118,7.691-5.872,6.575-10.62c-1.116-4.749-5.88-7.691-10.621-6.575l-224.44,52.803
	C138.499,281.258,135.556,286.012,136.672,290.761z"/>
<path d="M353.706,167.91l-118.555,27.893c-4.748,1.116-7.691,5.872-6.575,10.62c0.957,4.069,4.585,6.812,8.59,6.812
	c0.67,0,1.35-0.077,2.031-0.237l118.555-27.893c4.748-1.118,7.691-5.872,6.575-10.62
	C363.209,169.735,358.454,166.793,353.706,167.91z"/>
<path d="M219.527,167.96c0.957,4.069,4.585,6.812,8.59,6.812c0.67,0,1.35-0.077,2.031-0.237l118.555-27.893
	c4.748-1.116,7.691-5.872,6.575-10.62c-1.116-4.749-5.871-7.692-10.621-6.575L226.102,157.34
	C221.353,158.457,218.411,163.212,219.527,167.96z"/>
<path d="M214.952,118.811c0.67,0,1.35-0.077,2.031-0.237l53.395-12.562c4.748-1.118,7.691-5.872,6.575-10.62
	c-1.116-4.749-5.871-7.689-10.621-6.575l-53.395,12.562c-4.748,1.118-7.691,5.872-6.575,10.62
	C207.318,116.068,210.945,118.811,214.952,118.811z"/>
<g>
</g>
<g>
</g>
<g>
</g>
<g>
</g>
<g>
</g>
<g>
</g>
<g>
</g>
<g>
</g>
<g>
</g>
<g>
</g>
<g>
</g>
<g>
</g>
<g>
</g>
<g>
</g>
<g>
</g>
</svg>
